<svg width="57" height="57" viewBox="0 0 57 57" fill="none" xmlns="http://www.w3.org/2000/svg">
<path d="M53.7115 0H2.82692C2.07744 0.000872865 1.35891 0.298989 0.828951 0.828951C0.298989 1.35891 0.000872865 2.07744 0 2.82692V21.6731H3.76923V3.76923H52.7692V52.7692H3.76923V33.9231H0V53.7115C0.000872865 54.461 0.298989 55.1795 0.828951 55.7095C1.35891 56.2395 2.07744 56.5376 2.82692 56.5385H53.7115C54.461 56.5376 55.1795 56.2395 55.7095 55.7095C56.2395 55.1795 56.5376 54.461 56.5385 53.7115V2.82692C56.5376 2.07744 56.2395 1.35891 55.7095 0.828951C55.1795 0.298989 54.461 0.000872865 53.7115 0Z" fill="#FF8A00"/>
<path d="M22.7776 40.9087L25.4428 43.5739L41.2998 27.7169L25.4428 11.8599L22.7776 14.5249L34.0849 25.8324H0V29.6016H34.0847L22.7776 40.9087Z" fill="#FF8A00"/>
</svg>
