<svg width="23" height="28" viewBox="0 0 23 28" fill="none" xmlns="http://www.w3.org/2000/svg">
<path d="M2.32011 26.3722C2.31741 26.7283 2.45552 27.0709 2.70416 27.325C2.9528 27.579 3.29166 27.7237 3.64643 27.7273H18.9938C19.3486 27.7237 19.6874 27.579 19.9361 27.325C20.1847 27.0709 20.3228 26.7283 20.3201 26.3722V8.30469H2.32011V26.3722ZM4.12011 10.1114H18.5201V25.9205H4.12011V10.1114Z" fill="#FF6B00"/>
<path d="M8.17 11.9183H6.37V23.2105H8.17V11.9183Z" fill="#FF6B00"/>
<path d="M12.22 11.9183H10.42V23.2105H12.22V11.9183Z" fill="#FF6B00"/>
<path d="M16.27 11.9183H14.47V23.2105H16.27V11.9183Z" fill="#FF6B00"/>
<path d="M15.37 4.69116V1.98104C15.37 1.22119 14.8363 0.625977 14.155 0.625977H8.48502C7.80372 0.625977 7.27002 1.22119 7.27002 1.98104V4.69116H0.52002V6.49791H22.12V4.69116H15.37ZM9.07002 2.43273H13.57V4.69116H9.07002V2.43273Z" fill="#FF6B00"/>
</svg>
