<svg width="367" height="203" viewBox="0 0 367 203" fill="none" xmlns="http://www.w3.org/2000/svg">
<path d="M176.582 6.62784C180.45 2.92235 186.55 2.92235 190.418 6.62783L324.441 135.029C330.949 141.264 326.535 152.25 317.523 152.25H49.4772C40.4645 152.25 36.0512 141.264 42.5592 135.029L176.582 6.62784Z" fill="#010037"/>
<path d="M108.832 107.656C108.571 107.395 108.085 107.04 107.376 106.592C106.704 106.144 105.864 105.715 104.856 105.304C103.885 104.893 102.821 104.539 101.664 104.24C100.507 103.904 99.3307 103.736 98.136 103.736C96.0453 103.736 94.4587 104.128 93.376 104.912C92.3307 105.696 91.808 106.797 91.808 108.216C91.808 109.299 92.144 110.157 92.816 110.792C93.488 111.427 94.496 111.968 95.84 112.416C97.184 112.864 98.864 113.349 100.88 113.872C103.493 114.507 105.752 115.291 107.656 116.224C109.597 117.12 111.072 118.315 112.08 119.808C113.125 121.264 113.648 123.205 113.648 125.632C113.648 127.76 113.256 129.589 112.472 131.12C111.688 132.613 110.605 133.827 109.224 134.76C107.843 135.693 106.275 136.384 104.52 136.832C102.765 137.243 100.899 137.448 98.92 137.448C96.9413 137.448 94.9627 137.243 92.984 136.832C91.0053 136.421 89.1013 135.843 87.272 135.096C85.4427 134.312 83.7627 133.379 82.232 132.296L85.648 125.632C85.984 125.968 86.5813 126.416 87.44 126.976C88.2987 127.499 89.344 128.04 90.576 128.6C91.808 129.123 93.152 129.571 94.608 129.944C96.064 130.317 97.5387 130.504 99.032 130.504C101.123 130.504 102.709 130.149 103.792 129.44C104.875 128.731 105.416 127.723 105.416 126.416C105.416 125.221 104.987 124.288 104.128 123.616C103.269 122.944 102.075 122.365 100.544 121.88C99.0133 121.357 97.2027 120.797 95.112 120.2C92.6107 119.491 90.52 118.707 88.84 117.848C87.16 116.952 85.9093 115.832 85.088 114.488C84.2667 113.144 83.856 111.464 83.856 109.448C83.856 106.723 84.4907 104.445 85.76 102.616C87.0667 100.749 88.8213 99.3493 91.024 98.416C93.2267 97.4453 95.672 96.96 98.36 96.96C100.227 96.96 101.981 97.1653 103.624 97.576C105.304 97.9867 106.872 98.528 108.328 99.2C109.784 99.872 111.091 100.6 112.248 101.384L108.832 107.656ZM145.922 137H138.418V120.536C138.418 118.259 137.97 116.56 137.074 115.44C136.216 114.32 135.021 113.76 133.49 113.76C132.594 113.76 131.642 114.021 130.634 114.544C129.626 115.067 128.712 115.795 127.89 116.728C127.106 117.624 126.528 118.669 126.154 119.864V137H118.65V96.12H126.154V113.088C127.237 111.221 128.712 109.765 130.578 108.72C132.445 107.675 134.48 107.152 136.682 107.152C138.586 107.152 140.136 107.488 141.33 108.16C142.525 108.795 143.458 109.672 144.13 110.792C144.802 111.875 145.269 113.107 145.53 114.488C145.792 115.832 145.922 117.232 145.922 118.688V137ZM165.999 137.56C163.61 137.56 161.463 137.168 159.559 136.384C157.655 135.563 156.031 134.443 154.687 133.024C153.381 131.605 152.373 129.981 151.663 128.152C150.954 126.323 150.599 124.4 150.599 122.384C150.599 120.331 150.954 118.389 151.663 116.56C152.373 114.731 153.381 113.107 154.687 111.688C156.031 110.269 157.655 109.168 159.559 108.384C161.463 107.563 163.61 107.152 165.999 107.152C168.389 107.152 170.517 107.563 172.383 108.384C174.287 109.168 175.911 110.269 177.255 111.688C178.599 113.107 179.607 114.731 180.279 116.56C180.989 118.389 181.343 120.331 181.343 122.384C181.343 124.4 180.989 126.323 180.279 128.152C179.607 129.981 178.599 131.605 177.255 133.024C175.949 134.443 174.343 135.563 172.439 136.384C170.535 137.168 168.389 137.56 165.999 137.56ZM158.327 122.384C158.327 124.101 158.663 125.632 159.335 126.976C160.007 128.283 160.922 129.309 162.079 130.056C163.237 130.803 164.543 131.176 165.999 131.176C167.418 131.176 168.706 130.803 169.863 130.056C171.021 129.272 171.935 128.227 172.607 126.92C173.317 125.576 173.671 124.045 173.671 122.328C173.671 120.648 173.317 119.136 172.607 117.792C171.935 116.448 171.021 115.403 169.863 114.656C168.706 113.909 167.418 113.536 165.999 113.536C164.543 113.536 163.237 113.928 162.079 114.712C160.922 115.459 160.007 116.504 159.335 117.848C158.663 119.155 158.327 120.667 158.327 122.384ZM203.992 137.56C201.715 137.56 199.699 137.056 197.944 136.048C196.227 135.003 194.883 133.603 193.912 131.848V148.928H186.408V107.656H192.96V112.696C194.08 110.979 195.499 109.635 197.216 108.664C198.934 107.656 200.894 107.152 203.096 107.152C205.075 107.152 206.886 107.544 208.528 108.328C210.208 109.112 211.664 110.213 212.896 111.632C214.128 113.013 215.08 114.619 215.752 116.448C216.462 118.24 216.816 120.181 216.816 122.272C216.816 125.109 216.256 127.685 215.136 130C214.054 132.315 212.542 134.163 210.6 135.544C208.696 136.888 206.494 137.56 203.992 137.56ZM201.472 131.176C202.63 131.176 203.675 130.933 204.608 130.448C205.542 129.963 206.344 129.309 207.016 128.488C207.726 127.629 208.248 126.677 208.584 125.632C208.958 124.549 209.144 123.429 209.144 122.272C209.144 121.04 208.939 119.901 208.528 118.856C208.155 117.811 207.595 116.896 206.848 116.112C206.102 115.291 205.224 114.656 204.216 114.208C203.246 113.76 202.182 113.536 201.024 113.536C200.315 113.536 199.587 113.667 198.84 113.928C198.131 114.152 197.44 114.488 196.768 114.936C196.096 115.384 195.499 115.907 194.976 116.504C194.491 117.101 194.136 117.755 193.912 118.464V125.352C194.36 126.435 194.958 127.424 195.704 128.32C196.488 129.216 197.384 129.925 198.392 130.448C199.4 130.933 200.427 131.176 201.472 131.176ZM222.852 137V107.88H225.652V137H222.852ZM222.852 101.272V96.12H225.652V101.272H222.852ZM243.63 137.56C241.315 137.56 239.169 137.168 237.19 136.384C235.211 135.6 233.475 134.405 231.982 132.8L233.27 130.84C234.875 132.371 236.499 133.491 238.142 134.2C239.785 134.872 241.577 135.208 243.518 135.208C246.019 135.208 248.035 134.685 249.566 133.64C251.134 132.595 251.918 131.139 251.918 129.272C251.918 128.003 251.545 127.032 250.798 126.36C250.089 125.651 249.043 125.091 247.662 124.68C246.318 124.232 244.675 123.765 242.734 123.28C240.755 122.757 239.075 122.216 237.694 121.656C236.35 121.096 235.342 120.368 234.67 119.472C233.998 118.576 233.662 117.363 233.662 115.832C233.662 113.928 234.129 112.36 235.062 111.128C236.033 109.859 237.321 108.925 238.926 108.328C240.569 107.693 242.379 107.376 244.358 107.376C246.635 107.376 248.614 107.749 250.294 108.496C252.011 109.243 253.318 110.232 254.214 111.464L252.702 113.256C251.769 112.061 250.555 111.184 249.062 110.624C247.569 110.027 245.926 109.728 244.134 109.728C242.79 109.728 241.521 109.915 240.326 110.288C239.131 110.661 238.161 111.277 237.414 112.136C236.705 112.957 236.35 114.077 236.35 115.496C236.35 116.616 236.611 117.493 237.134 118.128C237.694 118.763 238.515 119.285 239.598 119.696C240.681 120.069 242.025 120.48 243.63 120.928C245.907 121.488 247.867 122.067 249.51 122.664C251.153 123.261 252.422 124.045 253.318 125.016C254.214 125.949 254.662 127.275 254.662 128.992C254.662 131.643 253.654 133.733 251.638 135.264C249.622 136.795 246.953 137.56 243.63 137.56ZM274.235 135.6C274.048 135.675 273.675 135.861 273.115 136.16C272.555 136.459 271.846 136.739 270.987 137C270.128 137.224 269.176 137.336 268.131 137.336C267.123 137.336 266.171 137.149 265.275 136.776C264.416 136.365 263.726 135.768 263.203 134.984C262.68 134.2 262.419 133.248 262.419 132.128V110.176H258.331V107.88H262.419V97.912H265.219V107.88H271.995V110.176H265.219V131.456C265.294 132.539 265.686 133.36 266.395 133.92C267.104 134.443 267.926 134.704 268.859 134.704C270.016 134.704 271.024 134.517 271.883 134.144C272.742 133.733 273.246 133.472 273.395 133.36L274.235 135.6Z" fill="#FF8A00"/>
<rect x="164" y="45" width="38.0871" height="41.7617" rx="10" fill="#FF8A00"/>
<path d="M179.267 72.8411L181.647 75.4512L186.805 70.231" stroke="#010037" stroke-width="1.5" stroke-linecap="round" stroke-linejoin="round"/>
<path d="M177.981 48.4801L172.236 54.7966M188.106 48.4801L193.851 54.7966" stroke="#010037" stroke-width="1.5" stroke-miterlimit="10" stroke-linecap="round" stroke-linejoin="round"/>
<path d="M167.174 58.6596C167.174 55.4405 168.745 55.1794 170.697 55.1794H195.39C197.342 55.1794 198.913 55.4405 198.913 58.6596C198.913 62.4007 197.342 62.1397 195.39 62.1397H170.697C168.745 62.1397 167.174 62.4007 167.174 58.6596Z" stroke="#010037" stroke-width="1.5"/>
<path d="M169.554 62.4006L171.792 77.4348C172.3 80.8106 173.522 83.2815 178.061 83.2815H187.63C192.565 83.2815 193.295 80.915 193.867 77.6436L196.533 62.4006" stroke="#010037" stroke-width="1.5" stroke-linecap="round"/>
</svg>
